<svg version="1.1" id="Layer_1" xmlns="http://www.w3.org/2000/svg" xmlns:xlink="http://www.w3.org/1999/xlink" x="0px" y="0px"
	 width="100%" viewBox="0 0 264 296" enable-background="new 0 0 264 296" xml:space="preserve">
<path fill="#FEFDFD" opacity="1.000000" stroke="none" 
	d="
M265.000000,104.000000 
	C265.000000,168.666672 265.000000,232.833328 265.000000,297.000000 
	C177.000000,297.000000 89.000000,297.000000 1.000000,297.000000 
	C1.000000,198.333328 1.000000,99.666664 1.000000,1.000000 
	C89.000000,1.000000 177.000000,1.000000 265.000000,1.000000 
	C265.000000,35.166668 265.000000,69.333336 265.000000,104.000000 
M8.397884,89.499924 
	C8.398081,110.991966 8.382756,132.484024 8.405129,153.976059 
	C8.416053,164.469040 13.464519,169.563354 24.022186,169.634155 
	C35.184212,169.709015 46.347122,169.651321 57.509647,169.653168 
	C65.003998,169.654404 65.010071,169.655685 65.010559,176.931839 
	C65.012917,212.085464 65.007225,247.239075 65.015717,282.392700 
	C65.017365,289.208435 65.523033,289.696472 72.465721,289.696960 
	C131.443832,289.701141 190.421951,289.700836 249.400070,289.697540 
	C256.605469,289.697144 257.034271,289.273132 257.034912,282.053711 
	C257.039948,225.741272 257.010071,169.428787 257.102600,113.116501 
	C257.108521,109.515320 256.136841,106.856628 253.554626,104.296158 
	C233.683044,84.592041 213.896576,64.801544 194.183533,44.938778 
	C191.520248,42.255272 188.736954,41.067616 184.926788,41.101692 
	C167.434692,41.258125 149.939865,41.098228 132.447342,41.230328 
	C129.031586,41.256123 127.570259,40.292175 127.815941,36.708920 
	C128.066071,33.060883 127.888611,29.381981 127.862350,25.716852 
	C127.793549,16.118080 122.999092,11.302378 113.439316,11.297297 
	C83.950264,11.281624 54.456268,11.603521 24.974546,11.138253 
	C12.977921,10.948927 8.245894,18.195179 8.340126,28.022902 
	C8.533402,48.180233 8.398479,68.340714 8.397884,89.499924 
z"/>
<path fill="#AF79A0" opacity="1.000000" stroke="none" 
	d="
M8.398277,88.999908 
	C8.398479,68.340714 8.533402,48.180233 8.340126,28.022902 
	C8.245894,18.195179 12.977921,10.948927 24.974546,11.138253 
	C54.456268,11.603521 83.950264,11.281624 113.439316,11.297297 
	C122.999092,11.302378 127.793549,16.118080 127.862350,25.716852 
	C127.888611,29.381981 128.066071,33.060883 127.815941,36.708920 
	C127.570259,40.292175 129.031586,41.256123 132.447342,41.230328 
	C149.939865,41.098228 167.434692,41.258125 184.926788,41.101692 
	C188.736954,41.067616 191.520248,42.255272 194.183533,44.938778 
	C213.896576,64.801544 233.683044,84.592041 253.554626,104.296158 
	C256.136841,106.856628 257.108521,109.515320 257.102600,113.116501 
	C257.010071,169.428787 257.039948,225.741272 257.034912,282.053711 
	C257.034271,289.273132 256.605469,289.697144 249.400070,289.697540 
	C190.421951,289.700836 131.443832,289.701141 72.465721,289.696960 
	C65.523033,289.696472 65.017365,289.208435 65.015717,282.392700 
	C65.007225,247.239075 65.012917,212.085464 65.010559,176.931839 
	C65.010071,169.655685 65.003998,169.654404 57.509647,169.653168 
	C46.347122,169.651321 35.184212,169.709015 24.022186,169.634155 
	C13.464519,169.563354 8.416053,164.469040 8.405129,153.976059 
	C8.382756,132.484024 8.398081,110.991966 8.398277,88.999908 
M127.882324,116.500000 
	C127.882301,128.497620 127.886482,140.495224 127.881104,152.492844 
	C127.875244,165.571289 124.025627,169.538956 111.012527,169.631042 
	C99.515366,169.712387 88.014893,169.778976 76.520767,169.575562 
	C72.762695,169.509048 71.696342,170.788956 71.708397,174.456680 
	C71.821289,208.782883 71.838081,243.109863 71.690765,277.435791 
	C71.673462,281.470367 72.989548,282.466217 76.843025,282.458954 
	C132.998413,282.352783 189.154160,282.346069 245.309479,282.469727 
	C249.332825,282.478577 250.331009,281.222168 250.322708,277.347809 
	C250.208954,224.191849 250.200577,171.035461 250.335419,117.879631 
	C250.345795,113.786209 249.005646,112.864815 245.180679,112.903511 
	C227.685928,113.080475 210.188370,112.987755 192.691818,112.976830 
	C186.072769,112.972702 185.267365,112.184082 185.258011,105.488220 
	C185.234024,88.324966 185.082275,71.159004 185.354477,54.000050 
	C185.432800,49.062634 183.744156,47.766899 179.035477,47.844231 
	C163.875885,48.093189 148.707687,48.072163 133.547226,47.851505 
	C129.210266,47.788383 127.750656,49.068825 127.793800,53.513088 
	C127.994339,74.173737 127.882286,94.837410 127.882324,116.500000 
M121.137512,39.501781 
	C121.136787,35.338158 121.152367,31.174458 121.131721,27.010933 
	C121.096024,19.809496 119.437233,18.072220 112.392914,18.067387 
	C83.080925,18.047281 53.768902,18.045197 24.456915,18.068457 
	C17.119375,18.074280 15.716996,19.508766 15.715585,26.812975 
	C15.707407,69.115532 15.708675,111.418083 15.713893,153.720642 
	C15.714866,161.611633 17.042406,162.944687 25.004892,162.948380 
	C53.817257,162.961731 82.629631,162.958191 111.442001,162.951187 
	C119.510010,162.949234 121.131950,161.357773 121.133591,153.418900 
	C121.141342,115.779617 121.137489,78.140335 121.137512,39.501781 
M202.461456,63.067188 
	C199.296341,60.084469 196.131226,57.101753 192.418152,53.602646 
	C192.418152,71.750046 192.418152,88.739456 192.418152,105.805771 
	C209.723358,105.805771 226.588181,105.805771 245.054016,105.805771 
	C230.388733,91.105736 216.658539,77.343002 202.461456,63.067188 
z"/>
<path fill="#FDFBFC" opacity="1.000000" stroke="none" 
	d="
M127.882210,116.000000 
	C127.882286,94.837410 127.994339,74.173737 127.793800,53.513088 
	C127.750656,49.068825 129.210266,47.788383 133.547226,47.851505 
	C148.707687,48.072163 163.875885,48.093189 179.035477,47.844231 
	C183.744156,47.766899 185.432800,49.062634 185.354477,54.000050 
	C185.082275,71.159004 185.234024,88.324966 185.258011,105.488220 
	C185.267365,112.184082 186.072769,112.972702 192.691818,112.976830 
	C210.188370,112.987755 227.685928,113.080475 245.180679,112.903511 
	C249.005646,112.864815 250.345795,113.786209 250.335419,117.879631 
	C250.200577,171.035461 250.208954,224.191849 250.322708,277.347809 
	C250.331009,281.222168 249.332825,282.478577 245.309479,282.469727 
	C189.154160,282.346069 132.998413,282.352783 76.843025,282.458954 
	C72.989548,282.466217 71.673462,281.470367 71.690765,277.435791 
	C71.838081,243.109863 71.821289,208.782883 71.708397,174.456680 
	C71.696342,170.788956 72.762695,169.509048 76.520767,169.575562 
	C88.014893,169.778976 99.515366,169.712387 111.012527,169.631042 
	C124.025627,169.538956 127.875244,165.571289 127.881104,152.492844 
	C127.886482,140.495224 127.882301,128.497620 127.882210,116.000000 
M154.964417,196.479721 
	C143.850388,211.842041 142.035736,228.323868 150.191376,245.354568 
	C157.916641,261.486572 171.382431,270.340454 189.078247,271.796112 
	C217.142700,274.104675 240.578613,250.228409 239.310989,223.328186 
	C238.382141,203.617569 225.933456,186.180374 206.789978,179.962814 
	C188.154510,173.910278 167.081696,180.464676 154.964417,196.479721 
M205.500061,163.408249 
	C185.686569,163.408218 165.873062,163.394348 146.059647,163.431396 
	C144.251755,163.434784 142.293152,163.400818 140.689102,164.068176 
	C139.583038,164.528366 138.146439,166.335526 138.330185,167.242310 
	C138.592377,168.536163 140.035553,169.831055 141.295242,170.599258 
	C142.157272,171.124985 143.565964,170.780426 144.730255,170.780609 
	C174.700256,170.785355 204.670273,170.785049 234.640274,170.781250 
	C235.804855,170.781113 237.158951,171.102997 238.085785,170.621872 
	C239.231400,170.027176 240.672119,168.817856 240.785812,167.746780 
	C240.902588,166.646896 239.836517,164.781998 238.817917,164.343079 
	C237.061646,163.586273 234.943192,163.463242 232.973236,163.444641 
	C224.149521,163.361359 215.324570,163.408844 205.500061,163.408249 
M145.757797,131.812347 
	C175.078812,131.812286 204.399811,131.818314 233.720810,131.796188 
	C235.370529,131.794952 237.218964,131.974182 238.605865,131.304794 
	C239.687210,130.782883 240.845245,129.026077 240.766495,127.902336 
	C240.693665,126.863091 239.171356,125.647224 238.009384,125.050331 
	C237.075760,124.570717 235.726334,124.875099 234.561401,124.874908 
	C204.574005,124.870102 174.586609,124.870071 144.599213,124.874382 
	C143.433853,124.874550 142.090820,124.571068 141.148209,125.043221 
	C139.974655,125.631042 138.428436,126.816750 138.336716,127.858185 
	C138.238205,128.976868 139.379852,130.682541 140.456955,131.298141 
	C141.630096,131.968643 143.350769,131.681229 145.757797,131.812347 
M165.500000,151.001770 
	C188.149475,151.001648 210.798950,151.002838 233.448425,150.998367 
	C234.946625,150.998062 236.573212,151.308319 237.904572,150.825180 
	C239.081619,150.398041 240.826767,148.944473 240.721436,148.158463 
	C240.545654,146.846878 239.327103,145.269974 238.111435,144.618118 
	C236.923920,143.981384 235.190689,144.305969 233.696976,144.305145 
	C211.214050,144.292725 188.731125,144.296158 166.248199,144.296158 
	C159.086975,144.296158 151.924576,144.223267 144.765106,144.335648 
	C142.084473,144.377716 138.308990,143.682083 138.357086,147.860718 
	C138.402115,151.772583 141.977310,150.951752 144.515411,150.977524 
	C151.176331,151.045181 157.838394,151.001236 165.500000,151.001770 
M91.531609,265.087830 
	C88.368568,265.110107 85.161667,264.840088 82.065041,265.304871 
	C80.898056,265.480011 79.185707,267.352722 79.180267,268.458740 
	C79.174644,269.598785 80.751282,271.099823 81.997414,271.783539 
	C83.035820,272.353271 84.597900,272.000916 85.928062,272.001648 
	C100.414253,272.009735 114.900452,272.007660 129.386642,272.006439 
	C132.050735,272.006195 134.810516,272.419281 137.345490,271.844666 
	C139.051315,271.458008 140.439285,269.669220 141.969437,268.507690 
	C140.472351,267.370453 139.066132,266.069000 137.438232,265.168182 
	C136.672287,264.744324 135.480103,265.088470 134.481064,265.088409 
	C120.494392,265.087860 106.507713,265.088013 91.531609,265.087830 
M88.607735,226.092606 
	C87.445175,226.092880 86.281647,226.062622 85.120255,226.099609 
	C82.539703,226.181778 78.993927,225.479782 78.793892,229.108292 
	C78.577469,233.034225 82.082985,232.917587 84.988350,232.914429 
	C97.942543,232.900330 110.899918,233.046753 123.847580,232.755157 
	C125.787994,232.711456 129.163269,230.811157 129.306198,229.491516 
	C129.657822,226.245041 126.581940,226.079315 123.958435,226.084961 
	C112.498993,226.109604 101.039467,226.093872 88.607735,226.092606 
M93.513306,252.185669 
	C105.804947,252.183578 118.098969,252.295319 130.385284,252.038605 
	C131.961121,252.005676 133.496933,250.056900 135.051270,248.995651 
	C133.478516,247.948257 131.957047,246.102310 130.323776,245.997421 
	C124.533882,245.625549 118.705803,245.845383 112.892197,245.846207 
	C103.092117,245.847580 93.288734,245.728241 83.495445,245.987930 
	C81.987488,246.027939 80.525955,247.818527 79.042946,248.799500 
	C80.545303,249.925415 81.923378,251.722565 83.577499,252.028824 
	C86.468773,252.564148 89.529724,252.183014 93.513306,252.185669 
z"/>
<path fill="#F8F4F7" opacity="1.000000" stroke="none" 
	d="
M121.137650,40.001419 
	C121.137489,78.140335 121.141342,115.779617 121.133591,153.418900 
	C121.131950,161.357773 119.510010,162.949234 111.442001,162.951187 
	C82.629631,162.958191 53.817257,162.961731 25.004892,162.948380 
	C17.042406,162.944687 15.714866,161.611633 15.713893,153.720642 
	C15.708675,111.418083 15.707407,69.115532 15.715585,26.812975 
	C15.716996,19.508766 17.119375,18.074280 24.456915,18.068457 
	C53.768902,18.045197 83.080925,18.047281 112.392914,18.067387 
	C119.437233,18.072220 121.096024,19.809496 121.131721,27.010933 
	C121.152367,31.174458 121.136787,35.338158 121.137650,40.001419 
M35.572796,58.830997 
	C59.048775,58.830502 82.525009,58.774063 106.000488,58.882767 
	C110.069405,58.901611 112.360260,57.722157 112.301567,53.294586 
	C112.204781,45.994019 112.229492,38.691448 112.252380,31.389877 
	C112.262260,28.238411 110.785324,26.966829 107.640671,26.973127 
	C81.500877,27.025475 55.360897,27.019775 29.221054,26.980339 
	C25.657467,26.974962 24.050961,28.527925 24.110779,32.109589 
	C24.202515,37.602409 24.131058,43.097931 24.130913,48.592308 
	C24.130644,58.829082 24.131260,58.829082 35.572796,58.830997 
M86.861740,145.423340 
	C86.862144,146.423096 86.857193,147.422897 86.863823,148.422623 
	C86.906189,154.808365 87.041611,154.960098 93.225372,154.984451 
	C98.057472,155.003464 102.891060,154.915436 107.721443,155.007721 
	C111.242897,155.074997 112.950188,153.607635 112.938797,149.979324 
	C112.889084,134.149918 112.875061,118.320076 112.949974,102.490883 
	C112.966217,99.057487 111.464165,97.660736 108.134178,97.708649 
	C102.969841,97.782959 97.793892,97.920891 92.641167,97.664330 
	C88.305206,97.448418 86.734726,99.091064 86.794441,103.451897 
	C86.981499,117.112740 86.862122,130.777771 86.861740,145.423340 
M55.144470,107.616844 
	C55.149303,111.283173 55.174274,114.949608 55.153168,118.615791 
	C55.133034,122.112358 56.826893,123.850113 60.333462,123.843185 
	C65.666260,123.832649 70.999207,123.821869 76.331871,123.851295 
	C79.885490,123.870903 81.412880,122.231209 81.298630,118.614555 
	C81.130318,113.286995 81.145836,107.947197 81.291908,102.618340 
	C81.392090,98.963821 79.609924,97.405487 76.210228,97.346642 
	C72.378357,97.280312 68.544731,97.309143 64.711868,97.308296 
	C55.192444,97.306206 55.155685,97.344849 55.144470,107.616844 
M80.875107,68.093033 
	C79.300911,67.425064 77.750633,66.257904 76.148117,66.181152 
	C70.994652,65.934341 65.817261,66.224854 60.658138,66.046494 
	C56.744629,65.911201 55.174244,67.798615 55.161652,71.427193 
	C55.143147,76.758995 55.183578,82.091087 55.149731,87.422737 
	C55.128864,90.709885 56.544029,92.300575 59.981598,92.222008 
	C65.477264,92.096390 70.979004,92.121429 76.476013,92.213104 
	C79.818871,92.268852 81.368187,90.910072 81.283920,87.459747 
	C81.133469,81.299248 81.175224,75.134048 80.875107,68.093033 
M92.815643,66.088135 
	C88.216820,65.617928 86.564514,67.755280 86.800018,72.255646 
	C87.069405,77.403778 86.939743,82.577904 86.844276,87.738152 
	C86.785133,90.934898 88.217621,92.254257 91.356667,92.208481 
	C97.017082,92.125916 102.679977,92.140114 108.340965,92.198746 
	C111.489876,92.231369 112.922089,90.726746 112.914810,87.648651 
	C112.901825,82.153587 112.867981,76.657898 112.934822,71.163589 
	C112.978470,67.576149 111.263588,66.021606 107.743042,66.073792 
	C103.081558,66.142891 98.418251,66.088455 92.815643,66.088135 
M23.958200,105.636902 
	C23.961035,110.127213 24.009932,114.618134 23.950794,119.107628 
	C23.910164,122.192101 25.331686,123.803406 28.409189,123.817810 
	C34.063084,123.844269 39.719028,123.891953 45.370628,123.769478 
	C48.550972,123.700554 50.113091,122.040855 50.014942,118.654793 
	C49.855999,113.171204 49.907021,107.678711 49.993237,102.191925 
	C50.043617,98.985596 48.530247,97.684944 45.441578,97.720390 
	C40.619335,97.775726 35.795895,97.718712 30.972998,97.727203 
	C24.063393,97.739365 24.048754,97.760765 23.958200,105.636902 
M78.989418,129.171463 
	C75.663338,129.102615 72.336578,128.951309 69.011299,128.979034 
	C53.640247,129.107117 55.204021,126.876297 55.154823,142.798508 
	C55.113029,156.324417 54.204277,154.967789 67.143036,154.983063 
	C81.256638,154.999725 81.352524,154.985809 81.190636,140.624939 
	C81.149048,136.935349 80.295235,133.254929 78.989418,129.171463 
M49.976246,71.863449 
	C50.366753,67.485756 48.212948,65.902267 44.016209,66.051834 
	C39.027107,66.229652 34.026188,66.146446 29.031702,66.078903 
	C25.458096,66.030579 23.883673,67.685333 23.942148,71.245461 
	C24.032375,76.738930 24.047049,82.236519 23.938503,87.729286 
	C23.874903,90.947624 25.322071,92.240005 28.445475,92.199562 
	C34.105942,92.126259 39.769180,92.110855 45.429047,92.204910 
	C48.919174,92.262894 50.111336,90.595711 50.010612,87.275482 
	C49.864258,82.451073 49.975891,77.618851 49.976246,71.863449 
M23.968153,149.161194 
	C23.549562,153.461212 25.504089,155.189514 29.790274,155.010849 
	C34.761490,154.803650 39.750309,154.864822 44.726921,154.990463 
	C48.582485,155.087799 50.106308,153.349442 50.001217,149.571854 
	C49.858177,144.430038 49.895790,139.279953 49.990570,134.135895 
	C50.055202,130.627762 48.616936,128.890396 44.987984,128.947342 
	C39.511536,129.033279 34.030121,129.074341 28.555925,128.934540 
	C25.034048,128.844604 23.865108,130.502914 23.943001,133.788010 
	C24.057070,138.599075 23.968513,143.414948 23.968153,149.161194 
z"/>
<path fill="#FDFCFD" opacity="1.000000" stroke="none" 
	d="
M202.694901,63.323730 
	C216.658539,77.343002 230.388733,91.105736 245.054016,105.805771 
	C226.588181,105.805771 209.723358,105.805771 192.418152,105.805771 
	C192.418152,88.739456 192.418152,71.750046 192.418152,53.602646 
	C196.131226,57.101753 199.296341,60.084469 202.694901,63.323730 
z"/>
<path fill="#AF79A0" opacity="1.000000" stroke="none" 
	d="
M155.197144,196.208679 
	C167.081696,180.464676 188.154510,173.910278 206.789978,179.962814 
	C225.933456,186.180374 238.382141,203.617569 239.310989,223.328186 
	C240.578613,250.228409 217.142700,274.104675 189.078247,271.796112 
	C171.382431,270.340454 157.916641,261.486572 150.191376,245.354568 
	C142.035736,228.323868 143.850388,211.842041 155.197144,196.208679 
M231.826767,216.003098 
	C231.229187,214.096420 230.715607,212.158539 230.021088,210.287842 
	C222.431595,189.845154 198.549911,179.180466 178.305786,187.169525 
	C159.516785,194.584320 149.720947,211.971100 152.888336,232.283310 
	C156.270584,253.973160 179.533249,269.204041 200.914734,264.336029 
	C220.133942,259.960327 236.722031,240.519882 231.826767,216.003098 
z"/>
<path fill="#B17DA3" opacity="1.000000" stroke="none" 
	d="
M206.000061,163.408691 
	C215.324570,163.408844 224.149521,163.361359 232.973236,163.444641 
	C234.943192,163.463242 237.061646,163.586273 238.817917,164.343079 
	C239.836517,164.781998 240.902588,166.646896 240.785812,167.746780 
	C240.672119,168.817856 239.231400,170.027176 238.085785,170.621872 
	C237.158951,171.102997 235.804855,170.781113 234.640274,170.781250 
	C204.670273,170.785049 174.700256,170.785355 144.730255,170.780609 
	C143.565964,170.780426 142.157272,171.124985 141.295242,170.599258 
	C140.035553,169.831055 138.592377,168.536163 138.330185,167.242310 
	C138.146439,166.335526 139.583038,164.528366 140.689102,164.068176 
	C142.293152,163.400818 144.251755,163.434784 146.059647,163.431396 
	C165.873062,163.394348 185.686569,163.408218 206.000061,163.408691 
z"/>
<path fill="#B17DA3" opacity="1.000000" stroke="none" 
	d="
M145.295258,131.811890 
	C143.350769,131.681229 141.630096,131.968643 140.456955,131.298141 
	C139.379852,130.682541 138.238205,128.976868 138.336716,127.858185 
	C138.428436,126.816750 139.974655,125.631042 141.148209,125.043221 
	C142.090820,124.571068 143.433853,124.874550 144.599213,124.874382 
	C174.586609,124.870071 204.574005,124.870102 234.561401,124.874908 
	C235.726334,124.875099 237.075760,124.570717 238.009384,125.050331 
	C239.171356,125.647224 240.693665,126.863091 240.766495,127.902336 
	C240.845245,129.026077 239.687210,130.782883 238.605865,131.304794 
	C237.218964,131.974182 235.370529,131.794952 233.720810,131.796188 
	C204.399811,131.818314 175.078812,131.812286 145.295258,131.811890 
z"/>
<path fill="#AC759D" opacity="1.000000" stroke="none" 
	d="
M165.000000,151.001770 
	C157.838394,151.001236 151.176331,151.045181 144.515411,150.977524 
	C141.977310,150.951752 138.402115,151.772583 138.357086,147.860718 
	C138.308990,143.682083 142.084473,144.377716 144.765106,144.335648 
	C151.924576,144.223267 159.086975,144.296158 166.248199,144.296158 
	C188.731125,144.296158 211.214050,144.292725 233.696976,144.305145 
	C235.190689,144.305969 236.923920,143.981384 238.111435,144.618118 
	C239.327103,145.269974 240.545654,146.846878 240.721436,148.158463 
	C240.826767,148.944473 239.081619,150.398041 237.904572,150.825180 
	C236.573212,151.308319 234.946625,150.998062 233.448425,150.998367 
	C210.798950,151.002838 188.149475,151.001648 165.000000,151.001770 
z"/>
<path fill="#B17DA3" opacity="1.000000" stroke="none" 
	d="
M92.026321,265.087891 
	C106.507713,265.088013 120.494392,265.087860 134.481064,265.088409 
	C135.480103,265.088470 136.672287,264.744324 137.438232,265.168182 
	C139.066132,266.069000 140.472351,267.370453 141.969452,268.507690 
	C140.439285,269.669220 139.051315,271.458008 137.345490,271.844666 
	C134.810516,272.419281 132.050735,272.006195 129.386642,272.006439 
	C114.900452,272.007660 100.414253,272.009735 85.928062,272.001648 
	C84.597900,272.000916 83.035820,272.353271 81.997414,271.783539 
	C80.751282,271.099823 79.174644,269.598785 79.180267,268.458740 
	C79.185707,267.352722 80.898056,265.480011 82.065041,265.304871 
	C85.161667,264.840088 88.368568,265.110107 92.026321,265.087891 
z"/>
<path fill="#B17DA3" opacity="1.000000" stroke="none" 
	d="
M89.093857,226.092697 
	C101.039467,226.093872 112.498993,226.109604 123.958435,226.084961 
	C126.581940,226.079315 129.657822,226.245041 129.306198,229.491516 
	C129.163269,230.811157 125.787994,232.711456 123.847580,232.755157 
	C110.899918,233.046753 97.942543,232.900330 84.988350,232.914429 
	C82.082985,232.917587 78.577469,233.034225 78.793892,229.108292 
	C78.993927,225.479782 82.539703,226.181778 85.120255,226.099609 
	C86.281647,226.062622 87.445175,226.092880 89.093857,226.092697 
z"/>
<path fill="#AC759D" opacity="1.000000" stroke="none" 
	d="
M93.016441,252.185791 
	C89.529724,252.183014 86.468773,252.564148 83.577499,252.028824 
	C81.923378,251.722565 80.545303,249.925415 79.042953,248.799500 
	C80.525955,247.818527 81.987488,246.027939 83.495445,245.987930 
	C93.288734,245.728241 103.092117,245.847580 112.892197,245.846207 
	C118.705803,245.845383 124.533882,245.625549 130.323776,245.997421 
	C131.957047,246.102310 133.478516,247.948257 135.051270,248.995636 
	C133.496933,250.056900 131.961121,252.005676 130.385284,252.038605 
	C118.098969,252.295319 105.804947,252.183578 93.016441,252.185791 
z"/>
<path fill="#AF7AA1" opacity="1.000000" stroke="none" 
	d="
M35.086639,58.830872 
	C24.131260,58.829082 24.130644,58.829082 24.130913,48.592308 
	C24.131058,43.097931 24.202515,37.602409 24.110779,32.109589 
	C24.050961,28.527925 25.657467,26.974962 29.221054,26.980339 
	C55.360897,27.019775 81.500877,27.025475 107.640671,26.973127 
	C110.785324,26.966829 112.262260,28.238411 112.252380,31.389877 
	C112.229492,38.691448 112.204781,45.994019 112.301567,53.294586 
	C112.360260,57.722157 110.069405,58.901611 106.000488,58.882767 
	C82.525009,58.774063 59.048775,58.830502 35.086639,58.830872 
M30.969496,41.581631 
	C30.969505,42.911751 30.968365,44.241875 30.969717,45.571995 
	C30.976274,52.014881 30.976513,52.018341 37.480110,52.019012 
	C55.769211,52.020901 74.058311,52.019669 92.347412,52.019661 
	C105.999565,52.019653 105.848259,52.018612 105.941078,38.481152 
	C105.969589,34.323330 104.671341,33.091675 100.543190,33.127773 
	C79.761719,33.309471 58.977787,33.210197 38.194717,33.211601 
	C30.982441,33.212090 30.982441,33.214767 30.969496,41.581631 
z"/>
<path fill="#AE779F" opacity="1.000000" stroke="none" 
	d="
M86.861603,144.932266 
	C86.862122,130.777771 86.981499,117.112740 86.794441,103.451897 
	C86.734726,99.091064 88.305206,97.448418 92.641167,97.664330 
	C97.793892,97.920891 102.969841,97.782959 108.134178,97.708649 
	C111.464165,97.660736 112.966217,99.057487 112.949974,102.490883 
	C112.875061,118.320076 112.889084,134.149918 112.938797,149.979324 
	C112.950188,153.607635 111.242897,155.074997 107.721443,155.007721 
	C102.891060,154.915436 98.057472,155.003464 93.225372,154.984451 
	C87.041611,154.960098 86.906189,154.808365 86.863823,148.422623 
	C86.857193,147.422897 86.862144,146.423096 86.861603,144.932266 
M93.041946,121.502930 
	C93.042603,129.162201 93.150917,136.823685 92.993156,144.479691 
	C92.926102,147.733017 94.125832,149.094376 97.361053,148.830444 
	C99.015205,148.695480 100.692673,148.735107 102.353508,148.817947 
	C105.194366,148.959686 106.135872,147.542145 106.123085,144.862289 
	C106.064331,132.541138 106.054329,120.219292 106.129868,107.898331 
	C106.147110,105.085701 104.943146,103.954971 102.240219,104.063103 
	C100.577835,104.129601 98.902611,104.179611 97.247246,104.052887 
	C93.928947,103.798866 92.849167,105.349312 92.998001,108.518806 
	C93.185234,112.506134 93.042412,116.508965 93.041946,121.502930 
z"/>
<path fill="#AE789F" opacity="1.000000" stroke="none" 
	d="
M55.144619,107.142517 
	C55.155685,97.344849 55.192444,97.306206 64.711868,97.308296 
	C68.544731,97.309143 72.378357,97.280312 76.210228,97.346642 
	C79.609924,97.405487 81.392090,98.963821 81.291908,102.618340 
	C81.145836,107.947197 81.130318,113.286995 81.298630,118.614555 
	C81.412880,122.231209 79.885490,123.870903 76.331871,123.851295 
	C70.999207,123.821869 65.666260,123.832649 60.333462,123.843185 
	C56.826893,123.850113 55.133034,122.112358 55.153168,118.615791 
	C55.174274,114.949608 55.149303,111.283173 55.144619,107.142517 
M74.921135,106.926018 
	C73.347404,104.134102 64.461784,102.750771 62.533047,105.044502 
	C62.145794,105.505035 62.015156,106.229210 61.891731,106.856522 
	C60.141266,115.753220 61.468128,117.216682 70.388809,117.236481 
	C73.743202,117.243919 75.374573,116.348869 74.977791,112.780693 
	C74.796478,111.150177 74.945534,109.482918 74.921135,106.926018 
z"/>
<path fill="#AE789F" opacity="1.000000" stroke="none" 
	d="
M81.005859,68.531921 
	C81.175224,75.134048 81.133469,81.299248 81.283920,87.459747 
	C81.368187,90.910072 79.818871,92.268852 76.476013,92.213104 
	C70.979004,92.121429 65.477264,92.096390 59.981598,92.222008 
	C56.544029,92.300575 55.128864,90.709885 55.149731,87.422737 
	C55.183578,82.091087 55.143147,76.758995 55.161652,71.427193 
	C55.174244,67.798615 56.744629,65.911201 60.658138,66.046494 
	C65.817261,66.224854 70.994652,65.934341 76.148117,66.181152 
	C77.750633,66.257904 79.300911,67.425064 81.005859,68.531921 
M73.010513,85.868942 
	C74.837700,83.718674 75.818367,75.721725 74.342796,74.019501 
	C73.869270,73.473236 72.984642,73.150627 72.232895,72.998474 
	C63.388073,71.208328 61.875351,72.608948 61.755341,81.381409 
	C61.702808,85.221329 63.073967,86.415359 66.650864,86.009850 
	C68.446098,85.806328 70.282036,85.961823 73.010513,85.868942 
z"/>
<path fill="#AE789F" opacity="1.000000" stroke="none" 
	d="
M93.285683,66.087624 
	C98.418251,66.088455 103.081558,66.142891 107.743042,66.073792 
	C111.263588,66.021606 112.978470,67.576149 112.934822,71.163589 
	C112.867981,76.657898 112.901825,82.153587 112.914810,87.648651 
	C112.922089,90.726746 111.489876,92.231369 108.340965,92.198746 
	C102.679977,92.140114 97.017082,92.125916 91.356667,92.208481 
	C88.217621,92.254257 86.785133,90.934898 86.844276,87.738152 
	C86.939743,82.577904 87.069405,77.403778 86.800018,72.255646 
	C86.564514,67.755280 88.216820,65.617928 93.285683,66.087624 
M106.105392,82.312561 
	C106.119896,72.085243 105.827484,71.814064 96.014626,72.948158 
	C95.849579,72.967232 95.617134,72.896721 95.525871,72.983467 
	C94.691063,73.776878 93.246147,74.544296 93.175209,75.416565 
	C92.899673,78.804497 93.063019,82.228119 93.063019,85.967720 
	C96.923645,85.967720 99.939598,86.219223 102.875160,85.843178 
	C104.039459,85.694046 105.025352,84.152161 106.105392,82.312561 
z"/>
<path fill="#AD779E" opacity="1.000000" stroke="none" 
	d="
M23.958387,105.159088 
	C24.048754,97.760765 24.063393,97.739365 30.972998,97.727203 
	C35.795895,97.718712 40.619335,97.775726 45.441578,97.720390 
	C48.530247,97.684944 50.043617,98.985596 49.993237,102.191925 
	C49.907021,107.678711 49.855999,113.171204 50.014942,118.654793 
	C50.113091,122.040855 48.550972,123.700554 45.370628,123.769478 
	C39.719028,123.891953 34.063084,123.844269 28.409189,123.817810 
	C25.331686,123.803406 23.910164,122.192101 23.950794,119.107628 
	C24.009932,114.618134 23.961035,110.127213 23.958387,105.159088 
M43.779289,114.114250 
	C43.789062,113.121902 43.806225,112.129562 43.807423,111.137207 
	C43.816006,104.022713 43.814976,104.022720 36.794647,104.028435 
	C36.298420,104.028839 35.756294,103.897675 35.314083,104.052330 
	C33.605301,104.649963 30.550945,105.212875 30.477617,106.015312 
	C30.157013,109.523735 30.163750,113.271866 31.152809,116.606407 
	C31.690815,118.420280 41.789978,116.936020 43.779289,114.114250 
z"/>
<path fill="#AD779E" opacity="1.000000" stroke="none" 
	d="
M79.401993,129.370880 
	C80.295235,133.254929 81.149048,136.935349 81.190636,140.624939 
	C81.352524,154.985809 81.256638,154.999725 67.143036,154.983063 
	C54.204277,154.967789 55.113029,156.324417 55.154823,142.798508 
	C55.204021,126.876297 53.640247,129.107117 69.011299,128.979034 
	C72.336578,128.951309 75.663338,129.102615 79.401993,129.370880 
M65.685829,148.851410 
	C75.628891,148.857590 76.138916,148.288818 74.961945,138.511139 
	C74.902527,138.017548 75.009239,137.417526 74.763557,137.051849 
	C74.328659,136.404541 73.690849,135.423172 73.122726,135.412766 
	C69.677666,135.349625 66.070885,134.991776 62.877163,135.940735 
	C61.930069,136.222122 62.090004,140.397079 61.844284,142.798309 
	C61.726746,143.946884 61.477108,145.311981 61.955467,146.231354 
	C62.511616,147.300262 63.799881,147.988251 65.685829,148.851410 
z"/>
<path fill="#AD779E" opacity="1.000000" stroke="none" 
	d="
M49.976875,72.326706 
	C49.975891,77.618851 49.864258,82.451073 50.010612,87.275482 
	C50.111336,90.595711 48.919174,92.262894 45.429047,92.204910 
	C39.769180,92.110855 34.105942,92.126259 28.445475,92.199562 
	C25.322071,92.240005 23.874903,90.947624 23.938503,87.729286 
	C24.047049,82.236519 24.032375,76.738930 23.942148,71.245461 
	C23.883673,67.685333 25.458096,66.030579 29.031702,66.078903 
	C34.026188,66.146446 39.027107,66.229652 44.016209,66.051834 
	C48.212948,65.902267 50.366753,67.485756 49.976875,72.326706 
M32.971390,85.906593 
	C35.952114,85.870491 38.932835,85.834381 42.720009,85.785210 
	C44.193321,81.454712 45.730808,77.120300 41.054218,73.000214 
	C38.051308,73.031982 35.048397,73.063759 31.223604,73.132401 
	C30.868547,77.005928 30.467325,80.876823 30.245440,84.757965 
	C30.227547,85.070908 31.441751,85.454285 32.971390,85.906593 
z"/>
<path fill="#AC759D" opacity="1.000000" stroke="none" 
	d="
M23.967230,148.694977 
	C23.968513,143.414948 24.057070,138.599075 23.943001,133.788010 
	C23.865108,130.502914 25.034048,128.844604 28.555925,128.934540 
	C34.030121,129.074341 39.511536,129.033279 44.987984,128.947342 
	C48.616936,128.890396 50.055202,130.627762 49.990570,134.135895 
	C49.895790,139.279953 49.858177,144.430038 50.001217,149.571854 
	C50.106308,153.349442 48.582485,155.087799 44.726921,154.990463 
	C39.750309,154.864822 34.761490,154.803650 29.790274,155.010849 
	C25.504089,155.189514 23.549562,153.461212 23.967230,148.694977 
M32.838593,148.862991 
	C44.780006,148.748428 43.860283,150.482880 43.737381,140.173889 
	C43.717743,138.526306 42.444946,135.527664 41.640884,135.489594 
	C37.965099,135.315552 34.090576,135.465393 30.618134,136.553848 
	C28.957289,137.074448 30.268118,146.861099 32.838593,148.862991 
z"/>
<path fill="#FCFAFB" opacity="1.000000" stroke="none" 
	d="
M231.887161,216.419556 
	C236.722031,240.519882 220.133942,259.960327 200.914734,264.336029 
	C179.533249,269.204041 156.270584,253.973160 152.888336,232.283310 
	C149.720947,211.971100 159.516785,194.584320 178.305786,187.169525 
	C198.549911,179.180466 222.431595,189.845154 230.021088,210.287842 
	C230.715607,212.158539 231.229187,214.096420 231.887161,216.419556 
M200.868652,198.507050 
	C199.119858,197.384415 197.464554,196.053909 195.590027,195.210785 
	C194.296585,194.629013 191.462112,194.398544 191.420013,194.559921 
	C190.406235,198.445801 186.543137,197.416733 184.271652,198.956329 
	C181.456757,200.864243 178.235977,202.745499 176.435699,205.463135 
	C172.252930,211.777222 173.840607,221.933289 183.501144,225.417633 
	C185.962402,226.305359 189.506607,227.777237 190.033981,229.679214 
	C191.070358,233.417007 190.338959,237.644943 190.338959,242.807312 
	C185.363586,240.251144 181.583328,238.308975 177.826187,236.378677 
	C171.634308,241.512466 171.638550,242.752563 178.361740,246.451202 
	C180.810669,247.798416 183.541870,248.732285 186.247253,249.484390 
	C188.764099,250.184113 191.161270,250.552017 191.005569,254.046387 
	C190.980331,254.612717 192.218033,255.650177 192.947250,255.723755 
	C193.747055,255.804474 195.369659,255.023346 195.370941,254.613831 
	C195.386230,249.749893 199.357712,250.138107 202.312698,249.123566 
	C208.214172,247.097336 211.862167,242.433884 212.157928,236.641525 
	C212.540955,229.139786 210.418365,225.483078 203.727310,222.413239 
	C202.075958,221.655624 200.151810,221.436829 198.595566,220.546463 
	C197.477234,219.906631 196.091080,218.623566 195.990250,217.520859 
	C195.661316,213.923370 195.866974,210.276993 195.866974,206.639847 
	C196.880356,206.533539 197.424347,206.312256 197.836365,206.459717 
	C200.633453,207.460907 203.402695,208.539902 206.141830,209.578918 
	C211.757874,203.793777 211.557907,202.572037 204.503433,199.568161 
	C203.595551,199.181580 202.581131,199.045197 200.868652,198.507050 
z"/>
<path fill="#FBF8FA" opacity="1.000000" stroke="none" 
	d="
M30.969469,41.102177 
	C30.982441,33.214767 30.982441,33.212090 38.194717,33.211601 
	C58.977787,33.210197 79.761719,33.309471 100.543190,33.127773 
	C104.671341,33.091675 105.969589,34.323330 105.941078,38.481152 
	C105.848259,52.018612 105.999565,52.019653 92.347412,52.019661 
	C74.058311,52.019669 55.769211,52.020901 37.480110,52.019012 
	C30.976513,52.018341 30.976274,52.014881 30.969717,45.571995 
	C30.968365,44.241875 30.969505,42.911751 30.969469,41.102177 
z"/>
<path fill="#FAF7F9" opacity="1.000000" stroke="none" 
	d="
M93.041977,121.004013 
	C93.042412,116.508965 93.185234,112.506134 92.998001,108.518806 
	C92.849167,105.349312 93.928947,103.798866 97.247246,104.052887 
	C98.902611,104.179611 100.577835,104.129601 102.240219,104.063103 
	C104.943146,103.954971 106.147110,105.085701 106.129868,107.898331 
	C106.054329,120.219292 106.064331,132.541138 106.123085,144.862289 
	C106.135872,147.542145 105.194366,148.959686 102.353508,148.817947 
	C100.692673,148.735107 99.015205,148.695480 97.361053,148.830444 
	C94.125832,149.094376 92.926102,147.733017 92.993156,144.479691 
	C93.150917,136.823685 93.042603,129.162201 93.041977,121.004013 
z"/>
<path fill="#F8F4F7" opacity="1.000000" stroke="none" 
	d="
M74.932938,107.379173 
	C74.945534,109.482918 74.796478,111.150177 74.977791,112.780693 
	C75.374573,116.348869 73.743202,117.243919 70.388809,117.236481 
	C61.468128,117.216682 60.141266,115.753220 61.891731,106.856522 
	C62.015156,106.229210 62.145794,105.505035 62.533047,105.044502 
	C64.461784,102.750771 73.347404,104.134102 74.932938,107.379173 
z"/>
<path fill="#F8F4F7" opacity="1.000000" stroke="none" 
	d="
M72.555038,85.911949 
	C70.282036,85.961823 68.446098,85.806328 66.650864,86.009850 
	C63.073967,86.415359 61.702808,85.221329 61.755341,81.381409 
	C61.875351,72.608948 63.388073,71.208328 72.232895,72.998474 
	C72.984642,73.150627 73.869270,73.473236 74.342796,74.019501 
	C75.818367,75.721725 74.837700,83.718674 72.555038,85.911949 
z"/>
<path fill="#F8F4F7" opacity="1.000000" stroke="none" 
	d="
M106.098938,82.778473 
	C105.025352,84.152161 104.039459,85.694046 102.875160,85.843178 
	C99.939598,86.219223 96.923645,85.967720 93.063019,85.967720 
	C93.063019,82.228119 92.899673,78.804497 93.175209,75.416565 
	C93.246147,74.544296 94.691063,73.776878 95.525871,72.983467 
	C95.617134,72.896721 95.849579,72.967232 96.014626,72.948158 
	C105.827484,71.814064 106.119896,72.085243 106.098938,82.778473 
z"/>
<path fill="#F5EFF4" opacity="1.000000" stroke="none" 
	d="
M43.729042,114.560104 
	C41.789978,116.936020 31.690815,118.420280 31.152809,116.606407 
	C30.163750,113.271866 30.157013,109.523735 30.477617,106.015312 
	C30.550945,105.212875 33.605301,104.649963 35.314083,104.052330 
	C35.756294,103.897675 36.298420,104.028839 36.794647,104.028435 
	C43.814976,104.022720 43.816006,104.022713 43.807423,111.137207 
	C43.806225,112.129562 43.789062,113.121902 43.729042,114.560104 
z"/>
<path fill="#F5EFF4" opacity="1.000000" stroke="none" 
	d="
M65.228119,148.846497 
	C63.799881,147.988251 62.511616,147.300262 61.955467,146.231354 
	C61.477108,145.311981 61.726746,143.946884 61.844284,142.798309 
	C62.090004,140.397079 61.930069,136.222122 62.877163,135.940735 
	C66.070885,134.991776 69.677666,135.349625 73.122726,135.412766 
	C73.690849,135.423172 74.328659,136.404541 74.763557,137.051849 
	C75.009239,137.417526 74.902527,138.017548 74.961945,138.511139 
	C76.138916,148.288818 75.628891,148.857590 65.228119,148.846497 
z"/>
<path fill="#FEFDFD" opacity="1.000000" stroke="none" 
	d="
M32.045486,73.095535 
	C35.048397,73.063759 38.051308,73.031982 41.521969,73.507019 
	C41.964333,77.941978 41.938946,81.870132 41.913559,85.798279 
	C38.932835,85.834381 35.952114,85.870491 32.492908,85.410538 
	C32.024780,80.974823 32.035133,77.035179 32.045486,73.095535 
z"/>
<path fill="#E5D4E1" opacity="1.000000" stroke="none" 
	d="
M31.634544,73.113968 
	C32.035133,77.035179 32.024780,80.974823 32.048920,85.359695 
	C31.441751,85.454285 30.227547,85.070908 30.245440,84.757965 
	C30.467325,80.876823 30.868547,77.005928 31.634544,73.113968 
z"/>
<path fill="#E5D4E1" opacity="1.000000" stroke="none" 
	d="
M42.316784,85.791748 
	C41.938946,81.870132 41.964333,77.941978 41.968704,73.561958 
	C45.730808,77.120300 44.193321,81.454712 42.316784,85.791748 
z"/>
<path fill="#F3EBF1" opacity="1.000000" stroke="none" 
	d="
M32.392036,148.828827 
	C30.268118,146.861099 28.957289,137.074448 30.618134,136.553848 
	C34.090576,135.465393 37.965099,135.315552 41.640884,135.489594 
	C42.444946,135.527664 43.717743,138.526306 43.737381,140.173889 
	C43.860283,150.482880 44.780006,148.748428 32.392036,148.828827 
z"/>
<path fill="#AD779E" opacity="1.000000" stroke="none" 
	d="
M201.242371,198.649979 
	C202.581131,199.045197 203.595551,199.181580 204.503433,199.568161 
	C211.557907,202.572037 211.757874,203.793777 206.141830,209.578918 
	C203.402695,208.539902 200.633453,207.460907 197.836365,206.459717 
	C197.424347,206.312256 196.880356,206.533539 195.866974,206.639847 
	C195.866974,210.276993 195.661316,213.923370 195.990250,217.520859 
	C196.091080,218.623566 197.477234,219.906631 198.595566,220.546463 
	C200.151810,221.436829 202.075958,221.655624 203.727310,222.413239 
	C210.418365,225.483078 212.540955,229.139786 212.157928,236.641525 
	C211.862167,242.433884 208.214172,247.097336 202.312698,249.123566 
	C199.357712,250.138107 195.386230,249.749893 195.370941,254.613831 
	C195.369659,255.023346 193.747055,255.804474 192.947250,255.723755 
	C192.218033,255.650177 190.980331,254.612717 191.005569,254.046387 
	C191.161270,250.552017 188.764099,250.184113 186.247253,249.484390 
	C183.541870,248.732285 180.810669,247.798416 178.361740,246.451202 
	C171.638550,242.752563 171.634308,241.512466 177.826187,236.378677 
	C181.583328,238.308975 185.363586,240.251144 190.338959,242.807312 
	C190.338959,237.644943 191.070358,233.417007 190.033981,229.679214 
	C189.506607,227.777237 185.962402,226.305359 183.501144,225.417633 
	C173.840607,221.933289 172.252930,211.777222 176.435699,205.463135 
	C178.235977,202.745499 181.456757,200.864243 184.271652,198.956329 
	C186.543137,197.416733 190.406235,198.445801 191.420013,194.559921 
	C191.462112,194.398544 194.296585,194.629013 195.590027,195.210785 
	C197.464554,196.053909 199.119858,197.384415 201.242371,198.649979 
M190.866776,208.034485 
	C189.790390,204.539795 187.236038,205.729294 185.955856,207.190186 
	C184.630264,208.702896 183.508179,211.377579 183.905426,213.191864 
	C184.542847,216.103043 186.715378,218.375427 190.899582,217.408096 
	C190.899582,214.503113 190.899582,211.701111 190.866776,208.034485 
M197.979919,230.016479 
	C197.292313,230.505859 196.037155,230.965103 196.009277,231.489532 
	C195.829269,234.878235 195.917114,238.281158 195.917114,241.679428 
	C196.429688,242.019928 196.942245,242.360443 197.454819,242.700943 
	C199.331604,240.846481 202.002380,239.308014 202.896103,237.062302 
	C204.185425,233.822632 201.886749,231.520096 197.979919,230.016479 
z"/>
<path fill="#F3EBF1" opacity="1.000000" stroke="none" 
	d="
M190.883179,208.466797 
	C190.899582,211.701111 190.899582,214.503113 190.899582,217.408096 
	C186.715378,218.375427 184.542847,216.103043 183.905426,213.191864 
	C183.508179,211.377579 184.630264,208.702896 185.955856,207.190186 
	C187.236038,205.729294 189.790390,204.539795 190.883179,208.466797 
z"/>
<path fill="#F8F4F7" opacity="1.000000" stroke="none" 
	d="
M198.374939,230.158386 
	C201.886749,231.520096 204.185425,233.822632 202.896103,237.062302 
	C202.002380,239.308014 199.331604,240.846481 197.454819,242.700943 
	C196.942245,242.360443 196.429688,242.019928 195.917114,241.679428 
	C195.917114,238.281158 195.829269,234.878235 196.009277,231.489532 
	C196.037155,230.965103 197.292313,230.505859 198.374939,230.158386 
z"/>
</svg>